# xmcd
#
# Track frame offsets: 
#        150
#        6100
#        23568
#        39785
#        55053
#        71772
#        90911
#        111405
#        132402
#        149020
#        170510
#        189490
#        208502
#        230932
#        245550
#
# Disc length: 3365 seconds
#
# Revision: 0
# Processed by: cddbd v1.5.2PL0 Copyright (c) Steve Scherf et al.
# Submitted via: ExactAudioCopy v1.0b3
#
DISCID=d10d230f
DTITLE=F.U.T.O. - Wild
DYEAR=2006
DGENRE=Hip Hop
TTITLE0=Intro Captain-C20XX
TTITLE1=Wild [雑草]
TTITLE2=Men's Men's World feat. Mummy-D
TTITLE3=Machine Gun Funk
TTITLE4=勝手に決めんじゃねー
TTITLE5=Clap Rock
TTITLE6=横浜エレクトリックブギ
TTITLE7=B.B.Q. feat. South Crew
TTITLE8=Wind Of Asia
TTITLE9=ホテルフジヤマ 2006 feat. Dob-Rok
TTITLE10=Martial Rhyme
TTITLE11=Caliente feat. Los Kalibres
TTITLE12=タイトル未定 feat. maru
TTITLE13=110%
TTITLE14=Outro
EXTD=
EXTT0=
EXTT1=
EXTT2=
EXTT3=
EXTT4=
EXTT5=
EXTT6=
EXTT7=
EXTT8=
EXTT9=
EXTT10=
EXTT11=
EXTT12=
EXTT13=
EXTT14=
PLAYORDER=
